<?xml version="1.0" standalone="no"?>
<!DOCTYPE svg PUBLIC "-//W3C//DTD SVG 20010904//EN"
 "http://www.w3.org/TR/2001/REC-SVG-20010904/DTD/svg10.dtd">
<svg version="1.0" xmlns="http://www.w3.org/2000/svg"
 width="752.000000pt" height="752.000000pt" viewBox="0 0 752.000000 752.000000"
 preserveAspectRatio="xMidYMid meet">
<metadata>
Created by potrace 1.14, written by Peter Selinger 2001-2017
</metadata>
<g transform="translate(0.000000,752.000000) scale(0.100000,-0.100000)"
fill="#000000" stroke="none">
<path d="M1953 5527 c-38 -20 -43 -38 -43 -164 l0 -123 -119 0 c-66 0 -127 -3
-136 -6 -43 -17 -42 13 -40 -1479 1 -781 3 -1423 4 -1427 0 -5 10 -17 21 -28
20 -20 33 -20 810 -20 l790 0 0 -22 c3 -183 8 -204 74 -252 27 -20 40 -21 434
-22 253 0 416 3 432 10 31 12 68 44 83 71 10 19 16 76 17 173 l0 42 784 0
c431 0 792 3 801 6 43 17 42 -14 41 1486 -1 1355 -2 1428 -19 1445 -15 15 -39
19 -147 21 l-130 4 0 118 c0 65 -3 126 -6 135 -16 41 -29 42 -684 40 -378 -2
-647 -7 -680 -13 -159 -30 -294 -80 -418 -154 l-64 -38 -26 19 c-103 72 -292
145 -432 167 -19 3 -39 9 -45 12 -17 11 -1281 10 -1302 -1z m1376 -165 c109
-29 213 -71 292 -119 l64 -38 1 -1318 c0 -724 -1 -1317 -3 -1317 -2 0 -31 14
-64 30 -64 33 -213 85 -268 95 -19 3 -37 7 -40 9 -22 14 -228 20 -701 20
l-545 1 -3 1333 -2 1332 592 -3 c571 -4 596 -4 677 -25z m2129 -1305 l-3
-1332 -555 -1 c-305 0 -582 -4 -614 -8 -125 -15 -275 -60 -383 -115 -34 -17
-64 -31 -66 -31 -2 0 -3 592 -3 1316 l1 1316 25 18 c44 32 163 88 242 114 148
50 201 53 801 54 l557 1 -2 -1332z m-3548 -200 c0 -1227 0 -1233 20 -1255 12
-12 26 -23 33 -23 7 -1 293 -2 637 -4 533 -2 636 -5 697 -18 147 -33 263 -82
377 -160 33 -22 72 -40 86 -40 14 0 55 19 89 43 118 79 285 145 426 166 28 4
322 8 655 9 333 2 613 3 622 4 10 0 26 11 38 23 20 22 20 28 20 1255 l0 1233
74 0 73 0 0 -1330 0 -1330 -748 0 c-827 0 -801 2 -850 -63 -21 -28 -24 -45
-27 -134 l-4 -102 -368 0 -368 0 -4 102 c-3 89 -6 106 -26 132 -51 64 8 60
-833 63 l-766 2 0 1330 0 1330 73 0 74 0 0 -1233z"/>
<path d="M2824 4476 c-24 -20 -28 -30 -27 -75 l1 -51 -163 0 c-156 0 -165 -1
-185 -22 -27 -29 -26 -73 3 -102 22 -22 25 -22 280 -22 202 1 257 -2 257 -12
0 -21 -61 -139 -90 -173 l-27 -33 -53 68 c-30 36 -65 69 -78 73 -51 12 -101
-38 -89 -89 4 -13 32 -54 63 -92 l58 -69 -29 -21 c-42 -31 -136 -82 -179 -96
-47 -15 -70 -49 -61 -89 9 -40 47 -64 88 -56 49 11 186 80 243 124 l52 39 53
-40 c72 -54 182 -117 216 -124 42 -8 83 27 83 71 0 25 -8 40 -31 59 -17 14
-35 26 -40 26 -6 0 -48 26 -94 57 -80 54 -84 59 -70 78 42 60 96 159 121 223
15 39 33 72 38 73 6 0 32 2 58 3 61 3 97 33 93 79 -5 60 -28 67 -206 67 -87 0
-159 3 -159 8 -6 92 -10 107 -30 124 -30 25 -64 23 -96 -6z"/>
<path d="M4690 4487 c-32 -16 -409 -755 -409 -804 -1 -58 73 -94 115 -55 10
10 87 154 169 320 83 166 153 300 157 299 13 -4 135 -258 126 -263 -5 -3 -25
-5 -46 -4 -83 4 -112 0 -132 -20 -25 -25 -26 -71 -1 -101 18 -23 26 -24 141
-25 66 -1 123 -4 126 -7 3 -2 26 -47 52 -98 54 -108 80 -130 130 -110 17 7 35
25 42 42 12 27 2 50 -181 419 -172 345 -198 392 -226 405 -37 18 -32 18 -63 2z"/>
</g>
</svg>
